name processed_emg_signals
nRows=52
nColumns=7
 
endheader
time	RGLTMED	RRF	RADDLONG	RST	RTA	RGM
0.0751999999999999	0.00348399699061	0.0089187438875321	-0.0243035738324952	0.0062951979026748	-0.0016998792536258	-0.0014317324359327
0.0851999999999999	0.0036484487216785	0.0091739497302808	-0.0211147028578248	0.0064641821006492	-0.0013401646884146	-0.0008465885921283
0.0951999999999999	0.0038115164587115	0.0094283726652398	-0.0179295245372891	0.0066328202896272	-0.0009788805207688	-0.0002638612493521
0.10519999999999988	0.0039730724769262	0.0096818229313931	-0.0147496554146909	0.006800998596336	-0.0006161710293294	0.0003161307666828
0.11519999999999989	0.0041329904455427	0.0099341114583478	-0.0115766992249831	0.0069686039794431	-0.0002521808436688	0.0008930727994364
0.12519999999999987	0.0042911456401784	0.01018505018626	-0.0084122448276119	0.0071355244437896	0.0001129452077629	0.0014666547998771
0.13519999999999988	0.004447415154129	0.0104344523857786	-0.0052578641807545	0.0073016492540329	0.0004790622458423	0.0020365717562795
0.14519999999999986	0.0046016781079755	0.0106821329769574	-0.0021151103608734	0.0074668691469385	0.0008460254846913	0.0026025241145818
0.15519999999999984	0.0047538158569519	0.0109279088460871	0.001014484368088	0.0076310765415499	0.001213690370919	0.0031642181884185
0.16519999999999985	0.0049037121955005	0.0111715991593992	0.0041294104316457	0.0077941657464575	0.0015819127178244	0.0037213665579571
0.17519999999999986	0.0050512535584385	0.0114130256725908	0.0072281827637387	0.0079560331633803	0.0019505488342251	0.0042736884566673
0.18519999999999984	0.0051963292181518	0.0116520130351041	0.0103093425637335	0.0081165774862805	0.0023194556476001	0.0048209101451605
0.19519999999999982	0.0053388314772244	0.0118883890880776	0.0133714589876313	0.0082756998952424	0.0026884908212532	0.0053627652712384
0.20519999999999983	0.005478655855906	0.0121219851548703	0.016413130769806	0.0084333042443634	0.003057512865219	0.0058989952153079
0.2151999999999998	0.0056157012738189	0.0123526363230571	0.0194329877717844	0.0085892972429154	0.0034263812406424	0.0064293494203252
0.22519999999999982	0.0057498702253075	0.0125801817167954	0.022429692454832	0.0087435886290424	0.003794956457375	0.0069535857054373
0.2351999999999998	0.0058810689478461	0.0128044647584598	0.0254019412734601	0.0088960913352495	0.0041631001645483	0.0074714705624877
0.24519999999999978	0.0060092075829208	0.0130253334184357	0.0283484659874329	0.0090467216449283	0.0045306752339083	0.0079827794345543
0.25519999999999976	0.0061342003288021	0.0132426404519505	0.0312680348903321	0.0091953993391555	0.0048975458357449	0.0084872969756969
0.26519999999999977	0.0062559655846194	0.0134562436218136	0.0341594539531581	0.0093420478330034	0.0052635775073144	0.0089848172911145
0.2751999999999998	0.006374426085145	0.0136660059059275	0.0370215678817619	0.0094865943006215	0.0056286372137325	0.0094751441569313
0.2851999999999998	0.0064895090257021	0.0138717956884286	0.0398532610871187	0.0096289697883763	0.0059925934013765	0.00995809121885
0.2951999999999998	0.0066011461766331	0.0140734869333154	0.0426534585676025	0.0097691093153525	0.0063553160438821	0.010433482168924
0.30519999999999975	0.0067092739868214	0.0142709593394457	0.0454211267024929	0.0099069519605423	0.0067166766808479	0.0109011508997214
0.3151999999999997	0.0068138336758653	0.0144640984758954	0.0481552739559642	0.010042440936104	0.0070765484493912	0.0113609416352027
0.3251999999999997	0.0069147713146509	0.0146527958969453	0.050854951490795	0.0101755236461998	0.0074348061087327	0.0118127090377261
0.3351999999999997	0.0070120378942407	0.0148369492364226	0.0535192536910428	0.0103061517311414	0.0077913260580423	0.0122563182907459
0.34519999999999973	0.0071055893831269	0.0150164622816662	0.0561473185929901	0.0104342810968212	0.0081459863478289	0.0126916451569673
0.35519999999999974	0.0071953867729726	0.0151912450278393	0.0587383282237784	0.0105598719296182	0.0084986666852209	0.0131185760119324
0.36519999999999975	0.0072813961129848	0.0153612137135807	0.0612915088473033	0.0106828886971129	0.0088492484335167	0.0135370078532028
0.37519999999999976	0.0073635885330666	0.0155262908390879	0.0638061311170786	0.0108033001350339	0.0091976146064091	0.0139468482854537
0.38519999999999965	0.0074419402558872	0.0156864051677367	0.0662815101359143	0.0109210792209193	0.0095436498572964	0.0143480154819092
0.39519999999999966	0.0075164325980218	0.0158414917123245	0.0687170054224109	0.0110362031350021	0.0098872404640903	0.0147404381226362
0.40519999999999967	0.0075870519603332	0.0159914917070042	0.0711120207845455	0.011148653208849	0.0102282743099408	0.0151240553103004
0.4151999999999997	0.0076537898078009	0.0161363525659602	0.0734660041010175	0.0112584148622799	0.0105666408603072	0.0154988164640749
0.4251999999999997	0.0077166426390533	0.0162760278298671	0.0757784470115108	0.0113654775290992	0.0109022311368374	0.0158646811924896
0.4351999999999997	0.0077756119459103	0.0164104771011454	0.0780488845176108	0.0114698345721692	0.0112349376885612	0.0162216191460914
0.4451999999999997	0.0078307041632951	0.0165396659689926	0.0802768944967843	0.0115714831883673	0.0115646545609491	0.0165696098508424
0.4551999999999996	0.0078819306099049	0.0166635659251308	0.08246209713251	0.0116704243039926	0.01189127726342	0.0169086425232231
0.4651999999999996	0.0079293074200392	0.0167821542711766	0.084604154264278	0.0117666624612243	0.0122147027359023	0.0172387158680303
0.4751999999999996	0.007972855466973	0.0168954140185034	0.0867027686617627	0.0118602056962659	0.0125348293150576	0.017559837859887
0.48519999999999963	0.0080126002782444	0.017003333781441	0.0887576832280179	0.0119510654098217	0.0128515567007789	0.0178720255095179
0.49519999999999964	0.0080485719432127	0.0171059076646238	0.0907686801369885	0.0120392562305498	0.0131647859235751	0.0181753046158979
0.5051999999999996	0.0080808050132328	0.0172031351452647	0.0927355799109373	0.0121247958721284	0.0134744193134604	0.0184697095054268
0.5151999999999997	0.0081093383947925	0.0172950209510852	0.0946582404435593	0.0122077049845647	0.0137803604709621	0.0187552827593003
0.5251999999999996	0.0081342152359681	0.0173815749345842	0.0965365559745945	0.0122880070003716	0.0140825142408553	0.0190320749302273
0.5351999999999996	0.00815548280657	0.0174628119442818	0.098370456021642	0.0123657279762352	0.0143807866892106	0.0193001442495997
0.5451999999999996	0.0081731923723673	0.0175387516935371	0.1001599042746682	0.0124408964307913	0.014675085084316	0.0195595563261786
0.5551999999999996	0.0081873990637867	0.0176094186274975	0.1019048974584408	0.0125135431791447	0.0149653178820057	0.0198103838373316
0.5651999999999996	0.0081981617394901	0.0176748417887006	0.1036054641678567	0.0125837011647825	0.0152513947158928	0.0200527062138491
0.5751999999999996	0.0082055428452431	0.017735054681801	0.1052616636808748	0.0126514052895567	0.0155332263929649	0.0202866093193727
0.5851999999999996	0.0082096082684917	0.0177900951378493	0.1068735847535133	0.0127166922424159	0.0158107248949577	0.0205121851254714
